HIERARCHY
ROOT Hips
{
  OFFSET 0 47.6942 0
  CHANNELS 6 Xposition Yposition Zposition Zrotation Xrotation Yrotation
  JOINT RightHipJoint
  {
    OFFSET 0 0 0
    CHANNELS 3 Zrotation Xrotation Yrotation
    JOINT RightUpLeg
    {
      OFFSET -6.08134 -3.88629 0.128968
      CHANNELS 3 Zrotation Xrotation Yrotation
      JOINT RightLeg
      {
        OFFSET -0.557283 -16.0178 0.0584079
        CHANNELS 3 Zrotation Xrotation Yrotation
        JOINT RightFoot
        {
          OFFSET -0.113211 -17.963 0.310197
          CHANNELS 3 Zrotation Xrotation Yrotation
          JOINT RightToeBase
          {
            OFFSET -0.663182 -7.38523 8.38825
            CHANNELS 3 Zrotation Xrotation Yrotation
            End Site
            {
              OFFSET -0.406279 0.043209 5.537
            }
          }
        }
      }
    }
  }
  JOINT LeftHipJoint
  {
    OFFSET 0 0 0
    CHANNELS 3 Zrotation Xrotation Yrotation
    JOINT LeftUpLeg
    {
      OFFSET 6.08134 -3.88629 0.128968
      CHANNELS 3 Zrotation Xrotation Yrotation
      JOINT LeftLeg
      {
        OFFSET 0.557283 -16.0178 0.0584079
        CHANNELS 3 Zrotation Xrotation Yrotation
        JOINT LeftFoot
        {
          OFFSET 0.113211 -17.963 0.310197
          CHANNELS 3 Zrotation Xrotation Yrotation
          JOINT LeftToeBase
          {
            OFFSET 0.663182 -7.38523 8.38825
            CHANNELS 3 Zrotation Xrotation Yrotation
            End Site
            {
              OFFSET 0.406279 0.043209 5.537
            }
          }
        }
      }
    }
  }
  JOINT LowerBack
  {
    OFFSET 0 0 0
    CHANNELS 3 Zrotation Xrotation Yrotation
    JOINT Spine
    {
      OFFSET 0 5.04431 -0.164042
      CHANNELS 3 Zrotation Xrotation Yrotation
      JOINT Spine1
      {
        OFFSET 0 6.7752 -0.262859
        CHANNELS 3 Zrotation Xrotation Yrotation
        JOINT Spine2
        {
          OFFSET 0 7.06988 -0.278313
          CHANNELS 3 Zrotation Xrotation Yrotation
          JOINT RightShoulder
          {
            OFFSET -3.78479 6.42979 -0.288036
            CHANNELS 3 Zrotation Xrotation Yrotation
            JOINT RightArm
            {
              OFFSET -6.31165 -2.71771 0.0219277
              CHANNELS 3 Zrotation Xrotation Yrotation
              JOINT RightForeArm
              {
                OFFSET -11.5936 -0.943246 -0.40631
                CHANNELS 3 Zrotation Xrotation Yrotation
                JOINT RightHand
                {
                  OFFSET -17.7496 -0.164851 0.501108
                  CHANNELS 3 Zrotation Xrotation Yrotation
                  End Site
                  {
                    OFFSET -8.18929 -0.905915 0.215009
                  }
                }
              }
            }
          }
          JOINT LeftShoulder
          {
            OFFSET 3.78479 6.42979 -0.288036
            CHANNELS 3 Zrotation Xrotation Yrotation
            JOINT LeftArm
            {
              OFFSET 6.31165 -2.71771 0.0219277
              CHANNELS 3 Zrotation Xrotation Yrotation
              JOINT LeftForeArm
              {
                OFFSET 11.5936 -0.943246 -0.40631
                CHANNELS 3 Zrotation Xrotation Yrotation
                JOINT LeftHand
                {
                  OFFSET 17.7496 -0.164851 0.501108
                  CHANNELS 3 Zrotation Xrotation Yrotation
                  End Site
                  {
                    OFFSET 8.18929 -0.905915 0.215009
                  }
                }
              }
            }
          }
          JOINT Neck
          {
            OFFSET 0 10.3326 -0.261975
            CHANNELS 3 Zrotation Xrotation Yrotation
            JOINT Head
            {
              OFFSET 0 12.4977 0.713112
              CHANNELS 3 Zrotation Xrotation Yrotation
              End Site
              {
                OFFSET 0 26.9967 0
              }
            }
          }
        }
      }
    }
  }
}
MOTION
Frames:	7
Frame Time:	0.0333333
-95.66 46.5024 -172.551 -0.752568 -4.12504 -16.6769 -3.97569e-16 -1.59028e-15 -0 2.94723 -2.38324 -14.1398 4.16951 18.2669 -11.4431 -6.4177 -13.1761 -7.3553 -1.45739e-06 4.77674e-09 -1.20063e-08 -3.97569e-16 -1.59028e-15 -0 5.60035 -25.0979 9.34518 0.609479 49.1527 8.94285 -2.29384 3.96505 6.7842 3.33053e-07 1.90671e-08 2.67018e-06 -3.97569e-16 -1.59028e-15 -0 0.575493 3.7092 1.35311 1.06621 7.43083 2.67724 1.06622 7.43083 2.67724 14.1398 -0.295546 -4.62762 49.9678 39.4761 16.9413 -13.5287 -8.62142 31.9238 1.84295 15.763 -7.69108 -15.173 -0.549651 5.55391 -58.5383 27.5562 -15.1791 13.7629 -7.77697 -28.9188 4.85406 24.6092 6.05444 3.17863 9.87233 8.11244 0.786856 -19.0821 9.46732 
-95.7209 46.6293 -172.145 0.145354 -3.99588 -16.8152 -0 -2.38542e-15 -0 2.07988 -2.00003 -13.7482 4.06667 17.8242 -11.4775 -6.17086 -13.1757 -7.41292 -1.43044e-06 1.61183e-06 3.11827e-06 -0 -2.38542e-15 -0 3.08387 -23.3797 7.50855 1.0244 40.466 9.70752 -1.67824 2.72343 7.37485 1.9318e-06 -3.69128e-06 -8.20417e-06 -0 -2.38542e-15 -0 0.4387 3.69339 1.45098 0.785807 7.39668 2.88255 0.785799 7.39666 2.88256 14.0594 -0.285445 -4.58382 49.6206 39.0506 17.3317 -13.4295 -8.34424 31.2893 1.76581 14.459 -7.76459 -15.2368 -0.53308 5.46957 -57.8882 27.9658 -15.506 13.739 -7.25782 -27.326 4.71557 24.1036 6.45937 3.36389 9.82237 8.69091 0.452795 -19.0108 10.1456 
-95.7979 46.7638 -171.724 0.869269 -4.03915 -16.8972 5.96354e-16 1.59028e-15 -6.36111e-15 1.42453 -1.2644 -13.0902 3.9074 17.2 -11.6755 -5.7611 -13.1694 -7.59141 -4.70826e-07 -3.21857e-07 -6.03398e-09 5.96354e-16 1.59028e-15 -6.36111e-15 1.53036 -20.8881 5.88111 0.297929 31.7427 8.65897 -2.12895 0.600685 6.27315 -3.13632e-07 8.47739e-07 -3.02052e-06 5.96354e-16 1.59028e-15 -6.36111e-15 0.318915 3.71648 1.51238 0.540891 7.44006 3.01358 0.540885 7.44005 3.01356 13.8599 -0.229765 -4.3221 49.2792 38.9421 17.4111 -13.3497 -8.19197 30.9827 1.54194 13.0394 -7.76123 -15.1846 -0.50199 5.32989 -57.0653 29.1555 -15.9023 13.8328 -6.82257 -25.7551 4.32311 23.3505 7.14794 3.60764 9.86457 9.10204 0.29358 -18.9131 10.6625 
-95.8669 46.836 -171.268 1.22129 -4.1594 -16.6825 5.96354e-16 0 -6.36111e-15 1.01087 -0.238061 -12.8613 3.85903 16.7327 -11.8406 -5.29613 -13.4708 -7.73129 -2.21865e-06 -1.02684e-06 6.23017e-06 5.96354e-16 0 -6.36111e-15 0.596033 -18.0132 4.82115 -0.651053 22.8709 6.8859 -2.95855 1.93687 4.82216 3.8731e-07 1.12668e-06 9.05284e-06 5.96354e-16 0 -6.36111e-15 0.254478 3.74306 1.48369 0.412849 7.49145 2.96014 0.412842 7.49146 2.96013 13.6169 -0.174447 -4.05995 48.8783 39.0791 17.4782 -13.1578 -8.03325 30.8707 1.47278 11.7788 -7.85698 -14.9044 -0.438308 5.05719 -56.7801 29.318 -16.0256 13.4918 -6.20957 -24.267 3.867 23.9659 7.4263 4.03031 10.1556 9.35236 0.172364 -18.7216 11.0801 
-95.9218 46.8058 -170.754 1.01152 -4.39517 -16.0389 7.95139e-16 0 -0 0.988157 0.906867 -13.0781 3.89872 16.9473 -12.0487 -4.65206 -14.2347 -7.85306 6.54023e-07 -2.11114e-06 -6.25592e-06 7.95139e-16 0 -0 0.256438 -15.6618 4.30134 -1.4003 16.4358 6.31993 -4.96441 5.86601 4.61909 2.25735e-07 1.66411e-07 -8.10781e-06 7.95139e-16 0 -0 0.281133 3.78384 1.35817 0.473615 7.57324 2.70657 0.473617 7.57324 2.70658 13.4315 -0.185433 -4.12468 48.1923 39.5435 17.8772 -12.7592 -7.78076 30.8732 1.37096 10.3333 -8.02651 -14.5472 -0.31918 4.51722 -56.7069 29.1606 -15.7158 13.2394 -5.82037 -23.3172 3.31374 25.5684 7.43388 4.79765 10.6145 9.48197 -0.177521 -18.335 11.5087 
-95.9883 46.7066 -170.192 0.438692 -4.71531 -15.3902 -1.98785e-16 7.95139e-16 3.18055e-15 1.34533 1.94667 -13.349 3.85972 17.818 -12.2767 -4.05 -15.3004 -7.98531 1.89749e-07 1.20717e-07 3.13467e-06 -1.98785e-16 7.95139e-16 3.18055e-15 -0.201323 -14.6536 4.99989 -1.43481 14.834 5.82664 -5.38385 7.49706 4.41358 1.71054e-06 -8.36085e-07 1.13281e-07 -1.98785e-16 7.95139e-16 3.18055e-15 0.344162 3.80819 1.19563 0.610426 7.6227 2.37624 0.610442 7.62271 2.37622 13.3493 -0.212005 -4.26409 47.2559 40.3713 18.5142 -12.2573 -7.4997 30.9964 1.25308 8.11042 -8.24566 -14.2012 -0.237581 4.14276 -56.4283 29.4943 -15.3172 13.1249 -5.62851 -22.8133 2.97554 27.0671 7.38578 5.78552 11.4141 9.68531 -0.783294 -17.9297 12.1373 
-96.0911 46.6297 -169.622 -0.141326 -4.92314 -15.0829 1.98785e-16 1.59028e-15 4.77083e-15 1.75995 2.93289 -13.749 3.72426 18.6687 -12.2059 -3.34758 -16.3244 -7.93682 -1.92226e-06 -7.91781e-07 3.09233e-06 1.98785e-16 1.59028e-15 4.77083e-15 -1.1467 -14.9418 5.66879 -1.26 17.0603 5.12999 -0.16918 5.75113 3.34369 -6.67105e-07 3.98132e-07 6.31095e-07 1.98785e-16 1.59028e-15 4.77083e-15 0.390704 3.76337 1.06318 0.71349 7.53329 2.10743 0.713511 7.5333 2.10744 13.2035 -0.249225 -4.46296 46.0373 41.8628 19.4565 -11.7775 -7.3148 31.4101 0.989258 5.32126 -8.52727 -14.0661 -0.252243 4.22187 -56.1132 29.9096 -14.9132 13.1069 -5.5991 -22.7354 2.42793 28.0159 7.58863 6.98085 12.5386 10.1595 -1.98406 -17.4718 13.2057 
